<svg version="1.1" id="Layer_1" xmlns="http://www.w3.org/2000/svg" xmlns:xlink="http://www.w3.org/1999/xlink" x="0px" y="0px"
	 width="100%" viewBox="0 0 512 512" enable-background="new 0 0 512 512" xml:space="preserve">
<path fill="#133453" opacity="1.000000" stroke="none" 
	d="
M225.000000,0.999999 
	C246.020889,1.000000 267.041779,1.000000 288.584778,1.395094 
	C289.784424,2.177077 290.433746,2.837952 291.143707,2.911230 
	C316.050171,5.481911 339.785187,12.369687 362.250732,23.227594 
	C380.258972,31.931240 398.400024,40.527832 413.513885,54.187836 
	C422.475037,62.286942 432.507355,69.268051 440.984619,77.816353 
	C449.429962,86.332405 456.820526,95.959663 464.124664,105.519119 
	C468.932068,111.810883 473.286530,118.576279 476.929962,125.603394 
	C484.605469,140.407120 492.866211,155.081161 498.653564,170.639145 
	C503.979614,184.957138 506.351257,200.370636 510.092407,215.284485 
	C510.914093,218.559998 512.023254,221.763397 513.000000,225.000000 
	C513.000000,246.020889 513.000000,267.041779 512.604919,288.584900 
	C511.823029,289.784882 511.162445,290.434357 511.089020,291.144531 
	C508.513275,316.052826 501.617584,339.785919 490.771515,362.261353 
	C482.084991,380.261749 473.548950,398.412567 459.839386,413.482788 
	C451.599457,422.540558 444.514832,432.704590 435.856812,441.310913 
	C427.468536,449.649139 417.948975,456.916077 408.509766,464.106720 
	C402.209473,468.906128 395.448944,473.266846 388.421051,476.911163 
	C373.611267,484.590759 358.931793,492.856598 343.367706,498.648315 
	C329.048157,503.976929 313.632416,506.350220 298.716583,510.093201 
	C295.440857,510.915222 292.236969,512.023499 289.000000,513.000000 
	C267.979095,513.000000 246.958206,513.000000 225.415100,512.604980 
	C224.214859,511.822998 223.565125,511.162170 222.854736,511.088837 
	C197.939560,508.517639 174.204010,501.612793 151.723511,490.764404 
	C133.717850,482.075439 115.567162,473.528107 100.489563,459.821381 
	C91.549805,451.694397 81.492645,444.732971 73.012642,436.181732 
	C64.564568,427.662720 57.173698,418.030273 49.866837,408.467651 
	C45.069572,402.189392 40.726887,395.436768 37.090614,388.424713 
	C29.411526,373.616608 21.142048,358.940735 15.350927,343.378510 
	C10.021359,329.056641 7.649749,313.637573 3.907238,298.718842 
	C3.085287,295.442322 1.976627,292.237732 1.000000,289.000000 
	C1.000000,267.979095 1.000000,246.958206 1.395054,225.415115 
	C2.176977,224.215179 2.837856,223.565704 2.911082,222.855621 
	C5.480174,197.943451 12.384241,174.209183 23.233292,151.734756 
	C31.930124,133.718781 40.546970,115.586899 54.201363,100.467857 
	C62.298298,91.502411 69.284912,81.472855 77.835571,72.995819 
	C86.353897,64.550835 95.984718,57.162579 105.545609,49.857891 
	C111.822800,45.062000 118.573128,40.719017 125.583832,37.084053 
	C140.392014,29.406208 155.068375,21.139004 170.630463,15.348656 
	C184.950241,10.020541 200.366714,7.649364 215.283005,3.907589 
	C218.558990,3.085805 221.762894,1.976759 225.000000,0.999999 
M157.461975,126.534286 
	C157.461960,147.192673 157.461685,167.851059 157.462036,188.509445 
	C157.462280,203.003708 157.481003,217.498016 157.456024,231.992233 
	C157.444977,238.401550 159.144333,244.077957 165.390869,246.875107 
	C168.304871,248.179962 171.788589,248.585434 175.037659,248.694229 
	C182.616226,248.947983 190.209061,248.775177 198.081161,248.775177 
	C197.308762,265.100281 196.675156,280.710114 195.810486,296.307159 
	C193.986069,329.216248 191.982285,362.115479 190.178543,395.025665 
	C189.594864,405.675262 198.317276,414.161499 209.362045,414.093506 
	C219.738525,414.029602 228.180405,405.392151 227.612747,395.246185 
	C226.841187,381.456268 225.848770,367.678436 225.117096,353.886627 
	C223.345566,320.493988 221.666870,287.096466 219.966354,253.700089 
	C219.886047,252.123062 219.956039,250.538376 219.956039,248.772354 
	C228.595261,248.772354 236.585281,248.929077 244.566727,248.734314 
	C255.553482,248.466202 260.999390,242.776245 261.004425,231.864929 
	C261.017975,202.376602 261.041779,172.888199 260.988647,143.399963 
	C260.967834,131.851196 254.439102,122.881386 243.194687,119.851257 
	C220.777435,113.810295 198.289856,108.020950 175.765274,102.392059 
	C166.963425,100.192482 159.055466,105.971474 157.848129,115.085426 
	C157.391785,118.530159 157.571976,122.059219 157.461975,126.534286 
M331.640106,406.002350 
	C332.639099,402.218750 334.623138,398.396027 334.474609,394.658051 
	C333.615753,373.046021 332.264954,351.453369 331.058289,329.855438 
	C330.139435,313.409393 328.975983,296.973541 328.326630,280.517181 
	C327.915894,270.108612 328.249939,259.670654 328.249939,248.771851 
	C332.467499,248.771851 337.595886,248.910217 342.714111,248.741241 
	C351.620667,248.447174 356.905090,243.927490 356.958191,236.054611 
	C357.112030,213.229568 357.126770,190.401871 356.949249,167.577133 
	C356.876648,158.246597 350.633972,150.436234 341.800507,148.131744 
	C325.471619,143.871826 309.111023,139.730621 292.734833,135.655792 
	C282.346832,133.070999 275.914734,138.229309 275.905823,149.028076 
	C275.882446,177.352463 275.889069,205.676880 275.902130,234.001282 
	C275.906769,244.101929 280.366241,248.643982 290.397919,248.765320 
	C295.164520,248.822983 299.932373,248.775223 304.853210,248.775223 
	C304.853210,252.689987 305.001190,256.001221 304.829559,259.295837 
	C303.565369,283.565735 302.259338,307.833588 300.922485,332.099640 
	C299.832581,351.883301 298.880951,371.677765 297.476929,391.439636 
	C296.737549,401.846344 300.195190,409.061127 308.935242,412.924530 
	C316.596008,416.310852 324.613617,414.020966 331.640106,406.002350 
z"/>
<path fill="#000000" opacity="1.000000" stroke="none" 
	d="
M513.000000,224.531342 
	C512.023254,221.763397 510.914093,218.559998 510.092407,215.284485 
	C506.351257,200.370636 503.979614,184.957138 498.653564,170.639145 
	C492.866211,155.081161 484.605469,140.407120 476.929962,125.603394 
	C473.286530,118.576279 468.932068,111.810883 464.124664,105.519119 
	C456.820526,95.959663 449.429962,86.332405 440.984619,77.816353 
	C432.507355,69.268051 422.475037,62.286942 413.513885,54.187836 
	C398.400024,40.527832 380.258972,31.931240 362.250732,23.227594 
	C339.785187,12.369687 316.050171,5.481911 291.143707,2.911230 
	C290.433746,2.837952 289.784424,2.177077 289.053406,1.395094 
	C363.593719,1.000000 438.187408,1.000000 513.000000,1.000000 
	C513.000000,75.354088 513.000000,149.708389 513.000000,224.531342 
z"/>
<path fill="#000000" opacity="1.000000" stroke="none" 
	d="
M224.531342,0.999999 
	C221.762894,1.976759 218.558990,3.085805 215.283005,3.907589 
	C200.366714,7.649364 184.950241,10.020541 170.630463,15.348656 
	C155.068375,21.139004 140.392014,29.406208 125.583832,37.084053 
	C118.573128,40.719017 111.822800,45.062000 105.545609,49.857891 
	C95.984718,57.162579 86.353897,64.550835 77.835571,72.995819 
	C69.284912,81.472855 62.298298,91.502411 54.201363,100.467857 
	C40.546970,115.586899 31.930124,133.718781 23.233292,151.734756 
	C12.384241,174.209183 5.480174,197.943451 2.911082,222.855621 
	C2.837856,223.565704 2.176977,224.215179 1.395054,224.946457 
	C1.000000,150.406296 1.000000,75.812576 1.000000,1.000000 
	C75.354088,1.000000 149.708389,1.000000 224.531342,0.999999 
z"/>
<path fill="#000000" opacity="1.000000" stroke="none" 
	d="
M289.468658,513.000000 
	C292.236969,512.023499 295.440857,510.915222 298.716583,510.093201 
	C313.632416,506.350220 329.048157,503.976929 343.367706,498.648315 
	C358.931793,492.856598 373.611267,484.590759 388.421051,476.911163 
	C395.448944,473.266846 402.209473,468.906128 408.509766,464.106720 
	C417.948975,456.916077 427.468536,449.649139 435.856812,441.310913 
	C444.514832,432.704590 451.599457,422.540558 459.839386,413.482788 
	C473.548950,398.412567 482.084991,380.261749 490.771515,362.261353 
	C501.617584,339.785919 508.513275,316.052826 511.089020,291.144531 
	C511.162445,290.434357 511.823029,289.784882 512.604919,289.053558 
	C513.000000,363.593719 513.000000,438.187408 513.000000,513.000000 
	C438.645905,513.000000 364.291626,513.000000 289.468658,513.000000 
z"/>
<path fill="#000000" opacity="1.000000" stroke="none" 
	d="
M1.000000,289.468658 
	C1.976627,292.237732 3.085287,295.442322 3.907238,298.718842 
	C7.649749,313.637573 10.021359,329.056641 15.350927,343.378510 
	C21.142048,358.940735 29.411526,373.616608 37.090614,388.424713 
	C40.726887,395.436768 45.069572,402.189392 49.866837,408.467651 
	C57.173698,418.030273 64.564568,427.662720 73.012642,436.181732 
	C81.492645,444.732971 91.549805,451.694397 100.489563,459.821381 
	C115.567162,473.528107 133.717850,482.075439 151.723511,490.764404 
	C174.204010,501.612793 197.939560,508.517639 222.854736,511.088837 
	C223.565125,511.162170 224.214859,511.822998 224.946442,512.604980 
	C150.406296,513.000000 75.812599,513.000000 1.000000,513.000000 
	C1.000000,438.645905 1.000000,364.291626 1.000000,289.468658 
z"/>
<path fill="#F7F8F9" opacity="1.000000" stroke="none" 
	d="
M157.461990,126.042061 
	C157.571976,122.059219 157.391785,118.530159 157.848129,115.085426 
	C159.055466,105.971474 166.963425,100.192482 175.765274,102.392059 
	C198.289856,108.020950 220.777435,113.810295 243.194687,119.851257 
	C254.439102,122.881386 260.967834,131.851196 260.988647,143.399963 
	C261.041779,172.888199 261.017975,202.376602 261.004425,231.864929 
	C260.999390,242.776245 255.553482,248.466202 244.566727,248.734314 
	C236.585281,248.929077 228.595261,248.772354 219.956039,248.772354 
	C219.956039,250.538376 219.886047,252.123062 219.966354,253.700089 
	C221.666870,287.096466 223.345566,320.493988 225.117096,353.886627 
	C225.848770,367.678436 226.841187,381.456268 227.612747,395.246185 
	C228.180405,405.392151 219.738525,414.029602 209.362045,414.093506 
	C198.317276,414.161499 189.594864,405.675262 190.178543,395.025665 
	C191.982285,362.115479 193.986069,329.216248 195.810486,296.307159 
	C196.675156,280.710114 197.308762,265.100281 198.081161,248.775177 
	C190.209061,248.775177 182.616226,248.947983 175.037659,248.694229 
	C171.788589,248.585434 168.304871,248.179962 165.390869,246.875107 
	C159.144333,244.077957 157.444977,238.401550 157.456024,231.992233 
	C157.481003,217.498016 157.462280,203.003708 157.462036,188.509445 
	C157.461685,167.851059 157.461960,147.192673 157.461990,126.042061 
M215.391327,119.997269 
	C202.389908,116.659042 189.390808,113.311821 176.386230,109.985924 
	C168.429413,107.950981 165.084152,110.518745 165.081375,118.676514 
	C165.071716,146.997910 165.077347,175.319290 165.077408,203.640686 
	C165.077438,213.469879 165.142334,223.299698 165.046692,233.127960 
	C165.009125,236.989258 166.605774,240.169296 170.263382,240.540237 
	C176.281082,241.150482 182.405777,240.705704 188.810028,240.705704 
	C188.810028,225.884644 188.743454,211.745239 188.834351,197.606827 
	C188.891190,188.764526 193.971924,184.494614 202.761490,185.955566 
	C207.662720,186.770233 212.484268,188.062622 217.343750,189.130508 
	C226.085358,191.051483 230.168182,195.878845 230.268417,204.837021 
	C230.382126,214.998154 230.284927,225.161530 230.309616,235.323853 
	C230.313889,237.085602 230.467987,238.846970 230.564301,240.845703 
	C235.972122,240.845703 240.795441,240.908737 245.616425,240.829025 
	C251.099487,240.738373 253.575287,238.396576 253.585876,232.912628 
	C253.643784,202.925400 253.683563,172.937683 253.559601,142.950836 
	C253.526657,134.985046 248.917496,129.171509 241.128937,126.902344 
	C232.866653,124.495148 224.503693,122.433540 215.391327,119.997269 
M202.090958,321.681305 
	C201.471405,333.127869 200.842972,344.573975 200.234650,356.021118 
	C199.555328,368.804810 198.767151,381.584595 198.275482,394.375641 
	C198.003952,401.439880 202.944351,406.650085 209.275818,406.576477 
	C215.996429,406.498322 220.325195,401.942657 220.066589,394.540894 
	C219.602371,381.254425 218.808182,367.979736 218.186600,354.698486 
	C216.733337,323.646759 215.319778,292.593170 213.837296,261.542847 
	C213.634689,257.299652 213.129990,253.070908 212.777756,248.981537 
	C210.324509,248.981537 208.378799,248.981537 206.104492,248.981537 
	C204.763977,273.029266 203.434265,296.883118 202.090958,321.681305 
M221.957214,209.628204 
	C221.955124,199.091248 221.571060,198.591660 211.562881,196.116455 
	C208.506165,195.360443 205.443481,194.627869 202.393295,193.846436 
	C197.147949,192.502625 196.339996,193.086197 196.317383,198.682297 
	C196.273666,209.509552 196.304352,220.337112 196.304214,231.164536 
	C196.304184,234.424652 196.304199,237.684753 196.304199,240.896790 
	C205.244797,240.896790 213.466843,240.896790 221.957214,240.896790 
	C221.957214,230.541962 221.957214,220.569214 221.957214,209.628204 
z"/>
<path fill="#F7F8F8" opacity="1.000000" stroke="none" 
	d="
M331.407501,406.287537 
	C324.613617,414.020966 316.596008,416.310852 308.935242,412.924530 
	C300.195190,409.061127 296.737549,401.846344 297.476929,391.439636 
	C298.880951,371.677765 299.832581,351.883301 300.922485,332.099640 
	C302.259338,307.833588 303.565369,283.565735 304.829559,259.295837 
	C305.001190,256.001221 304.853210,252.689987 304.853210,248.775223 
	C299.932373,248.775223 295.164520,248.822983 290.397919,248.765320 
	C280.366241,248.643982 275.906769,244.101929 275.902130,234.001282 
	C275.889069,205.676880 275.882446,177.352463 275.905823,149.028076 
	C275.914734,138.229309 282.346832,133.070999 292.734833,135.655792 
	C309.111023,139.730621 325.471619,143.871826 341.800507,148.131744 
	C350.633972,150.436234 356.876648,158.246597 356.949249,167.577133 
	C357.126770,190.401871 357.112030,213.229568 356.958191,236.054611 
	C356.905090,243.927490 351.620667,248.447174 342.714111,248.741241 
	C337.595886,248.910217 332.467499,248.771851 328.249939,248.771851 
	C328.249939,259.670654 327.915894,270.108612 328.326630,280.517181 
	C328.975983,296.973541 330.139435,313.409393 331.058289,329.855438 
	C332.264954,351.453369 333.615753,373.046021 334.474609,394.658051 
	C334.623138,398.396027 332.639099,402.218750 331.407501,406.287537 
M324.968597,151.374893 
	C313.743927,148.551697 302.537933,145.651199 291.287384,142.935303 
	C284.907959,141.395325 283.577209,142.521362 283.549805,149.109818 
	C283.501984,160.601151 283.536011,172.092834 283.536133,183.584366 
	C283.536316,200.571854 283.546722,217.559357 283.528473,234.546814 
	C283.525055,237.743240 283.754669,240.802933 287.947418,240.952438 
	C291.879486,241.092651 295.820496,240.982468 300.020813,240.982468 
	C300.020813,230.105957 299.961334,219.805435 300.039825,209.505966 
	C300.101562,201.406525 304.784241,197.646393 312.706970,199.255417 
	C315.631897,199.849442 318.513184,200.661057 321.409760,201.391724 
	C329.863556,203.524216 333.007568,207.533157 333.025604,216.245575 
	C333.042389,224.355835 333.029175,232.466171 333.029175,240.991409 
	C336.648895,240.991409 339.784363,240.821304 342.894012,241.032028 
	C347.346863,241.333771 349.179840,239.622742 349.150421,235.000671 
	C349.007202,212.518143 349.105774,190.034180 349.072815,167.550781 
	C349.062805,160.737625 345.793152,156.694489 339.230316,155.074280 
	C334.725983,153.962265 330.227631,152.825867 324.968597,151.374893 
M309.983459,309.441589 
	C308.733337,331.206177 307.413605,352.967072 306.270874,374.737305 
	C305.870941,382.356110 305.344391,390.040649 305.922211,397.615356 
	C306.379181,403.606171 311.527527,406.994568 317.168427,406.492676 
	C323.241821,405.952271 327.115112,401.869873 327.175446,395.658722 
	C327.220703,390.996948 327.102081,386.327393 326.873566,381.670227 
	C325.258392,348.757324 323.620972,315.845398 321.934662,282.936035 
	C321.357452,271.670776 320.619904,260.413727 319.947815,249.020584 
	C317.521576,249.020584 315.457886,249.020584 313.002625,249.020584 
	C312.000488,268.989777 311.009888,288.729584 309.983459,309.441589 
M307.210541,231.420090 
	C307.210541,234.487396 307.210541,237.554718 307.210541,240.856567 
	C310.921753,240.856567 313.738129,240.856567 316.554535,240.856567 
	C319.299103,240.856567 322.043671,240.856567 324.988312,240.856567 
	C324.988312,234.416748 325.047607,228.772324 324.976990,223.129532 
	C324.780426,207.416199 327.249420,210.949799 312.249817,206.752350 
	C308.460632,205.691986 307.044983,206.446579 307.159943,210.498550 
	C307.348419,217.140289 307.210693,223.791306 307.210541,231.420090 
z"/>
<path fill="#163655" opacity="1.000000" stroke="none" 
	d="
M215.788010,120.109138 
	C224.503693,122.433540 232.866653,124.495148 241.128937,126.902344 
	C248.917496,129.171509 253.526657,134.985046 253.559601,142.950836 
	C253.683563,172.937683 253.643784,202.925400 253.585876,232.912628 
	C253.575287,238.396576 251.099487,240.738373 245.616425,240.829025 
	C240.795441,240.908737 235.972122,240.845703 230.564301,240.845703 
	C230.467987,238.846970 230.313889,237.085602 230.309616,235.323853 
	C230.284927,225.161530 230.382126,214.998154 230.268417,204.837021 
	C230.168182,195.878845 226.085358,191.051483 217.343750,189.130508 
	C212.484268,188.062622 207.662720,186.770233 202.761490,185.955566 
	C193.971924,184.494614 188.891190,188.764526 188.834351,197.606827 
	C188.743454,211.745239 188.810028,225.884644 188.810028,240.705704 
	C182.405777,240.705704 176.281082,241.150482 170.263382,240.540237 
	C166.605774,240.169296 165.009125,236.989258 165.046692,233.127960 
	C165.142334,223.299698 165.077438,213.469879 165.077408,203.640686 
	C165.077347,175.319290 165.071716,146.997910 165.081375,118.676514 
	C165.084152,110.518745 168.429413,107.950981 176.386230,109.985924 
	C189.390808,113.311821 202.389908,116.659042 215.788010,120.109138 
z"/>
<path fill="#173654" opacity="1.000000" stroke="none" 
	d="
M202.097748,321.209106 
	C203.434265,296.883118 204.763977,273.029266 206.104492,248.981537 
	C208.378799,248.981537 210.324509,248.981537 212.777756,248.981537 
	C213.129990,253.070908 213.634689,257.299652 213.837296,261.542847 
	C215.319778,292.593170 216.733337,323.646759 218.186600,354.698486 
	C218.808182,367.979736 219.602371,381.254425 220.066589,394.540894 
	C220.325195,401.942657 215.996429,406.498322 209.275818,406.576477 
	C202.944351,406.650085 198.003952,401.439880 198.275482,394.375641 
	C198.767151,381.584595 199.555328,368.804810 200.234650,356.021118 
	C200.842972,344.573975 201.471405,333.127869 202.097748,321.209106 
z"/>
<path fill="#183855" opacity="1.000000" stroke="none" 
	d="
M221.957214,210.112335 
	C221.957214,220.569214 221.957214,230.541962 221.957214,240.896790 
	C213.466843,240.896790 205.244797,240.896790 196.304199,240.896790 
	C196.304199,237.684753 196.304184,234.424652 196.304214,231.164536 
	C196.304352,220.337112 196.273666,209.509552 196.317383,198.682297 
	C196.339996,193.086197 197.147949,192.502625 202.393295,193.846436 
	C205.443481,194.627869 208.506165,195.360443 211.562881,196.116455 
	C221.571060,198.591660 221.955124,199.091248 221.957214,210.112335 
z"/>
<path fill="#143553" opacity="1.000000" stroke="none" 
	d="
M325.347595,151.537628 
	C330.227631,152.825867 334.725983,153.962265 339.230316,155.074280 
	C345.793152,156.694489 349.062805,160.737625 349.072815,167.550781 
	C349.105774,190.034180 349.007202,212.518143 349.150421,235.000671 
	C349.179840,239.622742 347.346863,241.333771 342.894012,241.032028 
	C339.784363,240.821304 336.648895,240.991409 333.029175,240.991409 
	C333.029175,232.466171 333.042389,224.355835 333.025604,216.245575 
	C333.007568,207.533157 329.863556,203.524216 321.409760,201.391724 
	C318.513184,200.661057 315.631897,199.849442 312.706970,199.255417 
	C304.784241,197.646393 300.101562,201.406525 300.039825,209.505966 
	C299.961334,219.805435 300.020813,230.105957 300.020813,240.982468 
	C295.820496,240.982468 291.879486,241.092651 287.947418,240.952438 
	C283.754669,240.802933 283.525055,237.743240 283.528473,234.546814 
	C283.546722,217.559357 283.536316,200.571854 283.536133,183.584366 
	C283.536011,172.092834 283.501984,160.601151 283.549805,149.109818 
	C283.577209,142.521362 284.907959,141.395325 291.287384,142.935303 
	C302.537933,145.651199 313.743927,148.551697 325.347595,151.537628 
z"/>
<path fill="#173754" opacity="1.000000" stroke="none" 
	d="
M310.001343,308.955505 
	C311.009888,288.729584 312.000488,268.989777 313.002625,249.020584 
	C315.457886,249.020584 317.521576,249.020584 319.947815,249.020584 
	C320.619904,260.413727 321.357452,271.670776 321.934662,282.936035 
	C323.620972,315.845398 325.258392,348.757324 326.873566,381.670227 
	C327.102081,386.327393 327.220703,390.996948 327.175446,395.658722 
	C327.115112,401.869873 323.241821,405.952271 317.168427,406.492676 
	C311.527527,406.994568 306.379181,403.606171 305.922211,397.615356 
	C305.344391,390.040649 305.870941,382.356110 306.270874,374.737305 
	C307.413605,352.967072 308.733337,331.206177 310.001343,308.955505 
z"/>
<path fill="#1B3956" opacity="1.000000" stroke="none" 
	d="
M307.210541,230.929245 
	C307.210693,223.791306 307.348419,217.140289 307.159943,210.498550 
	C307.044983,206.446579 308.460632,205.691986 312.249817,206.752350 
	C327.249420,210.949799 324.780426,207.416199 324.976990,223.129532 
	C325.047607,228.772324 324.988312,234.416748 324.988312,240.856567 
	C322.043671,240.856567 319.299103,240.856567 316.554535,240.856567 
	C313.738129,240.856567 310.921753,240.856567 307.210541,240.856567 
	C307.210541,237.554718 307.210541,234.487396 307.210541,230.929245 
z"/>
</svg>